<svg id="Layer_1" data-name="Layer 1" xmlns="http://www.w3.org/2000/svg" width="100" height="100" viewBox="0 0 100 100">
  <title>icons</title>
  <path d="M92.813,69.41741a31.23615,31.23615,0,0,0-12.089-7.54487,2.5515,2.5515,0,0,0-2.503.4926,30.12066,30.12066,0,0,1-27.51824,6.40432,2.56351,2.56351,0,0,0-1.40413,0,30.12088,30.12088,0,0,1-27.51824-6.40432,2.55231,2.55231,0,0,0-2.503-.4926,31.23619,31.23619,0,0,0-12.089,7.54487,2.55409,2.55409,0,0,0,.00035,3.61087A31.55153,31.55153,0,0,0,50.001,74.69887a31.55154,31.55154,0,0,0,42.81234-1.67059,2.55328,2.55328,0,0,0-.00034-3.61087Z" style="fill: #479264"/>
  <path d="M92.81179,69.41741a31.23622,31.23622,0,0,0-12.089-7.54487,2.5515,2.5515,0,0,0-2.503.4926,30.12066,30.12066,0,0,1-27.51824,6.40432,2.55185,2.55185,0,0,0-.70071-.098L49.99962,74.699a31.55154,31.55154,0,0,0,42.79146-1.64971,2.54514,2.54514,0,0,0,.02071-3.63191Z" style="fill: #76d69d"/>
  <path d="M90.54873,45.67424a35.31569,35.31569,0,0,0-16.73293-.32908,2.55211,2.55211,0,0,0-1.87767,1.72946A32.48229,32.48229,0,0,1,50.00082,68.57293,32.48224,32.48224,0,0,1,28.06351,47.07462a2.55243,2.55243,0,0,0-1.87767-1.72946,35.31346,35.31346,0,0,0-16.73293.32908A2.55433,2.55433,0,0,0,7.58205,48.8194,35.16789,35.16789,0,0,0,50.001,73.85575,35.1679,35.1679,0,0,0,92.41993,48.8194a2.55424,2.55424,0,0,0-1.8712-3.14516Z" style="fill: #ade6c4"/>
  <path d="M90.54873,45.67424a35.31569,35.31569,0,0,0-16.73293-.32908,2.55211,2.55211,0,0,0-1.87767,1.72946A32.48229,32.48229,0,0,1,50.00082,68.57293v5.28282A35.16789,35.16789,0,0,0,92.41975,48.8194a2.55428,2.55428,0,0,0-1.871-3.14516Z" style="fill: #ade6c4"/>
  <path d="M77.24153,27.65136a2.55215,2.55215,0,0,0-3.12575-1.8045,37.67908,37.67908,0,0,0-16.32507,9.21257,2.55217,2.55217,0,0,0-.70887,2.45177A33.6968,33.6968,0,0,1,50.001,67.46659,33.6968,33.6968,0,0,1,42.92014,37.5112a2.55217,2.55217,0,0,0-.70887-2.45177A37.68015,37.68015,0,0,0,25.8862,25.84686a2.5523,2.5523,0,0,0-3.12576,1.8045A37.58871,37.58871,0,0,0,49.33892,73.689a2.56059,2.56059,0,0,0,1.32449,0A37.58814,37.58814,0,0,0,77.24154,27.65136Z" style="fill: #479264"/>
  <path d="M77.24136,27.65136a2.55217,2.55217,0,0,0-3.12576-1.8045,37.67913,37.67913,0,0,0-16.32507,9.21257,2.55217,2.55217,0,0,0-.70886,2.45177,33.69684,33.69684,0,0,1-7.08086,29.95539l-.00136,6.30953a2.5709,2.5709,0,0,0,.66361-.08711,37.58842,37.58842,0,0,0,26.5783-46.03764Z" style="fill: #76d69d"/>
  <path d="M50.00082,73.776a2.55585,2.55585,0,0,1-1.80621-.74766,38.79972,38.79972,0,0,1,0-54.86872,2.55369,2.55369,0,0,1,3.61087,0,38.79972,38.79972,0,0,1,0,54.86872,2.55159,2.55159,0,0,1-1.80467.74766Z" style="fill: #ade6c4"/>
  <path d="M50.00082,73.776l-.00136-56.364a2.55589,2.55589,0,0,1,1.8062.74766,38.79972,38.79972,0,0,1,0,54.86872,2.55228,2.55228,0,0,1-1.80484.74767Z" style="fill: #479264"/>
</svg>
