<svg id="Layer_1" data-name="Layer 1" xmlns="http://www.w3.org/2000/svg" width="100" height="100" viewBox="0 0 100 100">
  <title>icons</title>
  <path d="M28.12379,71.80387H15.98211a9.5093,9.5093,0,0,1-9.55954-9.90563A9.41,9.41,0,0,1,15.80705,53.008h7.02429V47.35223A16.259,16.259,0,0,1,39.04358,31.11186,2.57224,2.57224,0,0,1,41.62722,33.675V58.30039A13.51869,13.51869,0,0,1,28.12379,71.80388Z" style="fill: #ffdcc8"/>
  <path d="M84.193,71.80387H71.91712A13.54448,13.54448,0,0,1,58.37264,58.25939V33.675a2.57224,2.57224,0,0,1,2.58365-2.56311A16.25887,16.25887,0,0,1,77.16852,47.35222V53.008h7.02429A9.39794,9.39794,0,0,1,84.193,71.80387Z" style="fill: #ffc5bb"/>
  <path d="M72.11263,71.80387H28.11257a2.60131,2.60131,0,0,1-2.58523-2.10509,2.56842,2.56842,0,0,1,2.5306-3.02391,8.44263,8.44263,0,0,0,8.44313-8.423V33.52862a2.56308,2.56308,0,0,1,2.56308-2.56307H61.10659a2.56308,2.56308,0,0,1,2.56307,2.56307V58.25185a8.44257,8.44257,0,0,0,8.3746,8.42274,2.61946,2.61946,0,0,1,2.6164,2.2186,2.56784,2.56784,0,0,1-2.548,2.91068Z" style="fill: #ade6c4"/>
  <path d="M74.44335,69.23937a2.55957,2.55957,0,0,0-2.55448-2.5645,8.4161,8.4161,0,0,1-8.39008-8.423V33.52862a2.56308,2.56308,0,0,0-2.56308-2.56307H49.99993V71.80387h21.889a2.55956,2.55956,0,0,0,2.55447-2.5645Z" style="fill: #76d69d"/>
  <circle cx="49.99993" cy="21.15057" r="14.91709" style="fill: #ffdcc8"/>
  <path d="M64.917,21.15057A14.93407,14.93407,0,0,0,49.99993,6.23347V36.06766A14.934,14.934,0,0,0,64.917,21.15057Z" style="fill: #ffc5bb"/>
  <path d="M74.63962,66.67772H25.22081a2.56034,2.56034,0,0,0-2.56034,2.56034v2.20016a2.563,2.563,0,0,0,1.61115,2.37971L73.685,93.58317a2.58005,2.58005,0,0,0,.95466.18334,13.5444,13.5444,0,1,0,0-27.08879Z" style="fill: #398064"/>
  <path d="M74.708,93.76651a13.5444,13.5444,0,1,0,0-27.08879h-24.708V84.08186l23.75338,9.50132a2.5766,2.5766,0,0,0,.95466.18335Z" style="fill: #479264"/>
  <path d="M67.46489,78.1497l-7.56671-2.162a9.17134,9.17134,0,0,0-7.6248,1.20533L41.55374,72.90514a2.56779,2.56779,0,0,0-2.96939.796,2.61619,2.61619,0,0,0-.54544,1.63437V90.161a3.5145,3.5145,0,0,0,3.515,3.51442h33.1262a2.55472,2.55472,0,0,0,2.563-2.53308A13.54,13.54,0,0,0,67.46489,78.1497Z" style="fill: #ffdcc8"/>
  <path d="M26.28944,66.77a4.79188,4.79188,0,0,0-.95193-.18335,13.54492,13.54492,0,1,0,.17,27.08879H41.62722V72.90514Z" style="fill: #6ca883"/>
  <path d="M77.271,91.11237a13.54029,13.54029,0,0,0-9.7783-12.96284l-7.56671-2.162a9.17138,9.17138,0,0,0-7.6248,1.20533l-2.3013-.92048v17.4031H74.708A2.56313,2.56313,0,0,0,77.271,91.11237Z" style="fill: #ffc5bb"/>
</svg>
