<svg id="Layer_1" data-name="Layer 1" xmlns="http://www.w3.org/2000/svg" width="100" height="100" viewBox="0 0 100 100">
  <title>icons</title>
  <g>
    <path d="M64.64778,65.33489l27.4974-13.74861a2.56316,2.56316,0,0,0,1.31993-2.98289,8.09644,8.09644,0,0,0-11.42137-5.06816l-17.396,8.698Z" style="fill: #ff96a0"/>
    <path d="M64.818,65.21367l-1.40274.70137L64.818,40.22023V36.27235a11.57687,11.57687,0,0,1,8.29613-11.10221A2.55826,2.55826,0,0,1,76.39146,27.626l.00186,18.8587A20.93983,20.93983,0,0,1,64.818,65.21367Z" style="fill: #ffadad"/>
    <path d="M12.39694,56.6143a28.14,28.14,0,0,1,8.21687-19.878l15.88987-15.9217a2.55505,2.55505,0,0,1,4.03089.55519,12.372,12.372,0,0,1-1.98793,14.86426l-5.7559,5.769a5.83187,5.83187,0,0,0-1.08806,6.72112l6.844,13.7144,14.52767-5.823V44.88041l-7.31394-7.31393A12.27271,12.27271,0,0,1,43.791,22.7835a2.54368,2.54368,0,0,1,4.00583-.53889L63.90541,38.3513a2.53473,2.53473,0,0,1,.74237,1.79326V63.78012A2.55575,2.55575,0,0,1,63.237,66.066L36.623,79.39247a5.10564,5.10564,0,0,1-2.286.54034H8.993a2.553,2.553,0,0,1-2.553-2.553V59.16863a2.553,2.553,0,0,1,2.553-2.553h3.404Z" style="fill: #ffdcc8"/>
    <path d="M63.90509,38.35115,47.797,22.24492a2.54359,2.54359,0,0,0-4.00571.53888,12.27231,12.27231,0,0,0,1.96928,14.78254l7.31373,7.31373V56.61734L42.18162,60.97442V76.60161L63.23645,66.07428a2.55309,2.55309,0,0,0,1.41133-2.28357V40.14436a2.53569,2.53569,0,0,0-.74268-1.79321Z" style="fill: #ffc5bb"/>
  </g>
</svg>
