<svg xmlns="http://www.w3.org/2000/svg" width="750" height="500" viewBox="0 0 750 500">
  <title>modern-flat-design-form-login</title>
  <g id="OBJECTS">
    <g style="opacity: 0.2">
      <path d="M556.76939,432.4299c19.3155-32.0031,30.4945-69.0437,30.9033-106.5678.56331-51.7169-19.2566-103.3751-54.1233-141.0664a146.55587,146.55587,0,0,0-25.0493-21.9981c-85.9227-58.2817-202.27209-48.4851-281.355,17.2247a172.7745,172.7745,0,0,0-41.9883,51.6507c-32.5492,60.8214-29.8667,139.2099,2.6596,200.7569Z" style="fill: #34a562"/>
      <g>
        <path d="M212.8772,330.8191c2.6061,1.9732,5.5623,3.8936,6.7018,6.9572.5298,1.4243.6097,2.9775,1.055,4.4305,1.4321,4.6736,6.202,7.3682,9.2458,11.1932,5.8449,7.3446,5.9154,19.52,14.4147,23.5034,1.9032.8921,5.0256.4908,5.0128-1.6111a12.341,12.341,0,0,1,6.9152,13.6593c-1.017,4.4112-4.3951,7.8381-6.5299,11.83-3.4728,6.4937-3.525,14.3841-1.7028,21.5192a59.06282,59.06282,0,0,0,3.7163,10.1291H386.98319a13.88648,13.88648,0,0,0-3.0495-2.4106c-3.7131-1.9019-8.35669.1388-12.3403-1.0999a19.67727,19.67727,0,0,1-4.4973-2.4543c-6.9997-4.4223-15.672-6.6284-20.9787-12.9838-3.2967-3.9479-4.99839-9.212-8.9818-12.4657-3.8682-3.1595-9.1405-3.8217-14.1083-4.3361-1.92179-.199-3.94549-.4319-5.50349-1.5746a13.417,13.417,0,0,1-2.9765-3.7582c-4.8958-7.5272-11.5401-11.5544-20.4843-12.3456-.8604-4.255-6.0797-6.0055-10.4184-5.8575s-8.8611,1.3485-12.9017-.2387c-2.1738-.8539-4.0528-2.476-6.3497-2.8984a6.658,6.658,0,0,0-7.4306,4.9621c-.623-2.9407-3.8195-4.5328-6.7457-5.2204-2.9264-.6876-6.1417-.9852-8.4072-2.961-6.2975-5.4929.8314-16.5273-2.8327-24.0376a9.13223,9.13223,0,0,0-7.4495-5.0053q2.05065-6.73725,4.1015-13.4747a5.20486,5.20486,0,0,0,.3348-2.3191c-.4193-2.5715-4.1445-2.9439-6.4507-1.7317s-4.245,3.3373-6.8314,3.6512c-4.919.5972-7.8708-5.47-8.0934-10.42a32.76514,32.76514,0,0,1,5.3369-19.3566c2.8949-4.3899,8.3791-8.3398,13.0863-5.9961,2.1881,1.0894,4.1539,3.4704,6.5155,2.8399,1.5104-.4032,2.5371-1.9862,4.0827-2.2209,1.3186-.2003,2.5452.6438,3.6118,1.4444,2.9156,2.1881,6.0334,4.6799,6.8108,8.2413,1.0631,4.8696-2.0897,11.4618,2.1388,14.1003,3.8491-5.0588,1.5893-12.5695,4.176-18.376,1.4169-3.1806,3.3814-7.1798,6.8075-7.8006,10.228-1.8533,19.8532-10.9179,29.0827-24.7175,2.1322-3.1879,6.0587-5.0679,9.8525-5.6298,6.0973-.9031,12.3586,3.6591,18.19049,1.6642a5.395,5.395,0,0,0,3.8136-4.0006c.2649-1.9222-1.535-4.0361-3.4164-3.5616-1.1604.2927-2.15919,1.4275-3.32449,1.155-2.1159-.4947-.8624-3.623-.0293-5.6298.9755-2.3499-3.7018-4.3989-1.0818-7.1823,2.6199-2.7832,10.64329.1423,15.96489.2134.5803,1.5818-.8967,3.0852-2.06,4.304-1.1631,1.2189-2.0453,3.4108-.6685,4.3819a3.73745,3.73745,0,0,0,2.7643.1647,13.55216,13.55216,0,0,1,11.5471,3.7059c2.4235-1.0503,1.5136-4.8359-.3894-6.6677-1.903-1.8316-4.5756-3.3704-4.883-5.9939-.2402-2.0504,1.1232-3.936,1.4279-5.9779.9597-6.4305-8.2126-10.367-8.6925-16.8509-.1416-1.9137.522-3.8205.3707-5.7334s-1.6908-4.0063-3.5698-3.6168c-2.3407.4854-3.8838,4.4072-5.9227,3.1594-.0072-5.0359-1.5047-11.7322-6.53749-11.9095-3.4189-.1205-5.9339,3.2026-7.1569,6.3975s-1.9168,6.8034-4.4021,9.1544c-1.5378,1.4547-3.5818,2.2341-5.3248,3.4354-3.387,2.3342-5.4471,6.1027-7.3849,9.7312-3.8253-5.9857,1.0457-15.3666-3.9711-20.3959-1.2591-1.2622-3.1202-2.2182-3.3978-3.9794a4.62666,4.62666,0,0,1,1.114-3.268,17.74331,17.74331,0,0,1,16.5627-7.0957c3.507.497,7.7962,1.7988,10.0557-.929,1.6566-1.9997,2.7129-6.0678,5.0231-4.8822a8.16742,8.16742,0,0,1-.7969,6.5937,13.43161,13.43161,0,0,1,9.36479,4.6971c1.038,1.2328,1.9767,2.7455,3.52781,3.183a4.71967,4.71967,0,0,0,3.71119-.8179c5.4707-3.4867,5.7624-11.225,5.4252-17.7035s-.1008-14.2026,5.3289-17.7528c1.2581-.8227,2.8211-1.4535,3.3943-2.8432,1.0897-2.6418-2.2991-4.9461-5.1333-5.3115a18.88788,18.88788,0,0,0-16.41,6.2734,3.61181,3.61181,0,0,1-1.8017,1.4057,3.0654,3.0654,0,0,1-2.5894-1.2032c-2.10509-2.1267-3.69229-4.733-5.88439-6.7699s-5.3244-3.4804-8.1641-2.5369c-2.855.9486-4.7199,4.0583-7.6842,4.5722a41.26026,41.26026,0,0,1,5.3226-13.0435c-4.8168-.3589-9.4732,1.5839-13.9122,3.4879a73.78868,73.78868,0,0,0-12.9428,6.59c-4.2228,2.9049-7.7861,6.6507-11.3156,10.3673q-19.5456,20.5818-39.0912,41.1634a143.179,143.179,0,0,0-21.1106,29.4836c-10.7256,19.3188-3.9691,43.4288-7.7312,65.2027-.6051,3.5017-1.4917,7.0009-1.3424,10.5513C201.2073,319.2292,206.5977,326.0645,212.8772,330.8191Z" style="fill: #54cc85"/>
        <path d="M250.5123,320.13a6.60277,6.60277,0,0,0-3.925-1.2573c-6.8393.738,2.4967,4.4372,3.558,4.9118a27.516,27.516,0,0,1,8.8002,6.2529,8.06861,8.06861,0,0,1,1.4282,1.9176c.464.946.6502,2.0997,1.477,2.753a4.0776,4.0776,0,0,0,1.9024.6581q2.8962.4845,5.7925.9691a6.33639,6.33639,0,0,0-2.3855-3.3472C261.9171,328.3153,256.5538,323.7111,250.5123,320.13Z" style="fill: #54cc85"/>
        <path d="M272.1443,343.5276c.5385.2995,1.0925.5695,1.6544.8222.0143.0248.0233.0522.0377.0768.0048-.0196-.0008-.04.003-.0598a22.30834,22.30834,0,0,0,10.8662,1.8793c-1.6164-4.1438-6.1865-6.2267-10.4225-7.5834-.4391-.1407-.9781-.258-1.3138.0581a1.23173,1.23173,0,0,0-.29.8403,8.5319,8.5319,0,0,0,.5002,3.4183,1.16249,1.16249,0,0,0-.1025-.069Z" style="fill: #54cc85"/>
        <path d="M358.37679,178.4748a85.99294,85.99294,0,0,0,.8423,19.867c.5788,3.6244,1.507,7.4307,4.1298,9.9981a5.04753,5.04753,0,0,0,2.1984,1.365c1.7635.4562,3.6069-.5769,4.8109-1.9437,2.9967-3.4022,3.1595-8.5764,5.9707-12.1335,2.2444-2.8399,5.8054-4.2105,9.0229-5.8689s6.4956-4.0982,7.1366-7.6607c.5752-3.1971-1.1368-6.2942-2.1087-9.3937-1.53069-4.8813-1.4765-10.6599-5.14369-14.2267-2.44981-2.3829-6.10991-3.1722-9.51391-2.868a35.82138,35.82138,0,0,0-9.81609,2.8273q-4.09562,1.617-8.19131,3.2338c-4.0863,1.6133-4.01369,2.5571-2.5233,5.4334C357.44789,171.4592,358.785,172.9424,358.37679,178.4748Z" style="fill: #54cc85"/>
        <path d="M435.45139,130.6776l-6.612-1.4763c10.8777,9.1285,7.67661,16.431,21.3554,25.6872,4.084,2.7941,7.1395,8.28,5.4323,12.9246-2.5005-3.3203-5.7664-6.5018-9.89-7.0235s-8.8164,2.9892-8.0142,7.0675a14.71323,14.71323,0,0,0,1.6088,3.646c2.754,5.4607,2.378,11.9524,4.1538,17.8049s7.6473,11.5825,13.3497,9.3718a6.363,6.363,0,0,1,2.533-.7592c3.0262.1613,2.4611,4.9415,4.1813,7.4364,1.063,1.5418,3.137,2.2107,4.0313,3.8561,1.3737,2.5275-.74179,5.4216-1.8487,8.0768-1.3208,3.1684-1.1785,6.7324-1.8333,10.1019-.655,3.3697-2.5804,6.9579-5.9334,7.6928,2.5663,2.5692,6.3789,3.3476,9.5413,5.1327s5.8497,5.7943,3.9678,8.9001a20.76693,20.76693,0,0,0-14.748,4.1616c5.2008,3.908,2.81151,12.6082,6.5247,17.9499,4.0539,5.8317,13.53,4.6616,18.8355-.0601,1.2781-1.1376,2.4855-2.5882,2.5261-4.2988a9.4696,9.4696,0,0,0-1.177-3.795c-2.4-5.6354-1.5481-12.059-.6541-18.1185a6.83518,6.83518,0,0,0,6.5844-2.7716c1.0837-1.5569,1.8174-3.8035,3.6981-4.0518,2.3002-.3035,3.5066,2.6372,5.4274,3.9387,2.83341,1.9199,7.1403.0734,9.8672,2.1418,3.1415,2.3829,1.5374,7.6348,3.6367,10.9725,2.9254-2.2454,2.6821-6.9941.5086-9.9734s-5.66709-4.6401-8.9826-6.2549-6.7644-3.4511-8.6782-6.6034c8.21771,1.6929,17.083,3.7589,22.466,10.1948,1.9848,2.3731,4.927,5.5961,7.4412,3.7934-3.1228-4.0551-6.4083-8.6181-6.0477-13.7236.118-1.6694.632-3.3291.4173-4.9889-.638-4.93-7.37409-8.7234-5.3978-13.2848,3.4166-3.0966,8.6325-6.2893,12.1623-3.3222,2.87341,2.4155,1.9991,7.0929.1277,10.3471s-4.5609,6.3403-4.6699,10.0925c-.1445,4.979,4.2382,8.7772,8.2803,11.6878q2.471-3.14625,4.9422-6.2926a3.36188,3.36188,0,0,1,1.6669-1.3634c1.509-.3758,2.6439,1.3249,3.265,2.7505,1.9669,4.5142,3.9777,9.3631,3.11,14.21s-5.9612,9.2371-10.5511,7.454c-3.4699,2.2653.9956,9.2197-2.5181,11.4165-2.1915,1.3702-4.7839-.8666-7.2652-1.59-4.1552-1.2112-9.57639,1.7575-12.4969-1.4367-1.0479-1.1461-1.3674-2.7929-2.3076-4.0288-2.239-2.9425-7.0116-2.3455-9.9983-.166s-4.9731,5.475-7.7921,7.8675c-4.353,3.6943-10.4429,5.0366-14.393,9.159-8.0697,8.4218-3.0508,22.9371-8.239,33.3836-1.9151,3.8561-5.1764,7.0137-6.53449,11.0992-2.78091,8.366,3.227,17.5014,1.41729,26.1297-.57929,2.7622-1.9569,5.4549-1.6009,8.2545.3395,2.67,2.1897,4.8681,3.9847,6.8737q6.26625,7.00125,12.9266,13.636c3.5425,3.5288,8.0275,7.2512,12.9315,6.2746,2.9632-.59,5.9241-2.8685,8.6917-1.6565,7.15811,3.1347,15.5294-2.8481,20.9126-8.5124a16.76653,16.76653,0,0,1,4.0796-3.6695c3.0787-1.604,6.8108-.5273,10.1025.5756a8.838,8.838,0,0,1,2.64,1.2231c1.7857,1.3719,2.2577,3.8896,2.0676,6.1333-.1899,2.2439-.902,4.4316-.9421,6.683-.0967,5.4267,3.6401,10.1471,4.8132,15.4464,1.0245,4.6278.0454,9.4367-.9328,14.0746a88.02239,88.02239,0,0,1-3.727,13.8768c-.1924.4939-.3954.9843-.6012,1.4737h20.8676c13.3695-21.9996,27.6266-55.3139,29.5425-99.1332C591.96939,244.7329,546.08689,157.503,435.45139,130.6776Z" style="fill: #54cc85"/>
        <path d="M408.221,190.0755q-1.65136.5781-3.30271,1.1561c-1.2776.4472-2.8358,1.363-2.5329,2.6824l-1.0828-.854q2.7945,2.5704,5.8022,4.8957a3.36515,3.36515,0,0,0,1.3016.7211,3.46067,3.46067,0,0,0,2.3623-.6914,11.30854,11.30854,0,0,0,3.7334-2.9728,3.86118,3.86118,0,0,0,.2007-4.4813C413.26189,188.713,410.41069,189.309,408.221,190.0755Z" style="fill: #54cc85"/>
        <path d="M440.72319,218.0167a.87353.87353,0,0,0,.9689.37,2.609,2.609,0,0,1,.34191-.1948Z" style="fill: #54cc85"/>
        <path d="M443.35889,217.7978a8.06721,8.06721,0,0,1-1.6668.5889,3.35969,3.35969,0,0,0-.8353,4.9343,11.15582,11.15582,0,0,1,1.2065,1.2148c1.3389,2.0035-1.2277,5.3945.6805,6.8663a2.3614,2.3614,0,0,0,2.8899-.326,6.89673,6.89673,0,0,0,1.608-2.6793c.9146-2.2409,1.8469-4.6452,1.3714-7.0184S445.60429,216.8942,443.35889,217.7978Z" style="fill: #54cc85"/>
        <path d="M460.68749,219.0924a6.255,6.255,0,0,0-3.2143-1.9562,41.16426,41.16426,0,0,1-11.8257-6.8284c-1.243-1.0272-2.5563-2.1845-4.1658-2.2845-.93469,1.9646.4035,4.3304,2.1717,5.598,2.6564,1.9044,5.8831,2.5267,7.99161,5.2072,1.75629,2.2327,1.81159,5.3882,3.66829,7.5298C459.88819,231.6355,462.92679,222.4012,460.68749,219.0924Z" style="fill: #54cc85"/>
      </g>
    </g>
    <g>
      <path d="M210.04357,115.444q-8.84536-13.68678-18.14335-27.15353,2.2572-.77283,4.51926-1.52605,4.48446,6.90564,8.86159,13.8626c2.17134,3.42228,4.22383,6.88631,5.71235,9.6l.09425-.03013a108.627,108.627,0,0,1-.69173-11.25319q-.221-8.25861-.31289-16.53768,2.251-.68671,4.50627-1.35429,4.30056,7.06175,8.48958,14.17255a107.15738,107.15738,0,0,1,5.21085,9.73994l.095-.0269c-.27912-3.51542-.32119-7.14509-.35632-11.20966q.02563-8.25317.17936-16.52256,2.21755-.59652,4.43872-1.17474-.799,16.48341-1.05149,32.90837-2.13691.59622-4.27011,1.21052-4.26231-7.3083-8.64351-14.56508a94.28569,94.28569,0,0,1-5.08338-9.21293l-.09847.02963a99.60774,99.60774,0,0,1,.45866,10.60632q.0903,8.55058.32286,17.07916Q212.16019,114.75613,210.04357,115.444Z" style="fill: #fff"/>
      <path d="M261.18454,89.82363c1.71857,8.18551-3.39642,13.0034-8.90888,14.31652-6.17342,1.45953-12.05043-1.63355-13.86753-8.55264-1.92339-7.32063,2.17741-12.99014,8.81758-14.55477C254.11356,79.41087,259.76306,83.05942,261.18454,89.82363Zm-18.52378,4.536c1.21447,4.80469,5.01554,7.69739,9.0949,6.73343,3.984-.94135,6.18845-5.20452,5.09473-10.18181-.82251-3.73825-3.893-8.05565-9.01509-6.85268C242.71609,85.27241,241.60877,90.1953,242.66076,94.35965Z" style="fill: #fff"/>
      <path d="M265.76845,84.71567c-.53011-2.61076-1.03441-4.84571-1.60225-6.87628q1.90938-.38841,3.82078-.76331.50172,2.16387,1.00225,4.328l.19708-.03856a7.17057,7.17057,0,0,1,5.715-6.123,5.1548,5.1548,0,0,1,1.26976-.08829q.3446,1.90884.68919,3.81769a7.048,7.048,0,0,0-1.508.13192c-3.06921.563-4.82666,3.14458-4.82116,6.28522a10.83107,10.83107,0,0,0,.17087,1.91921q1.1529,5.9178,2.30578,11.83561-2.07251.40374-4.14258.82406Q267.31684,92.34183,265.76845,84.71567Z" style="fill: #fff"/>
      <path d="M279.02893,64.30527q2.23347-.384,4.46921-.75,2.68054,16.37388,5.3611,32.74771-2.105.34461-4.2079.70611Q281.8401,80.6572,279.02893,64.30527Z" style="fill: #fff"/>
      <path d="M312.33713,59.59092q1.51394,13.5866,3.02786,27.17316c.22253,1.99738.5249,4.26787.83943,5.78495q-1.89977.211-3.79841.43557-.3268-1.93794-.655-3.87564l-.09662.01148a8.877,8.877,0,0,1-7.39323,5.41c-5.5902.74837-10.59474-3.15072-11.65645-9.94111-1.21275-7.42555,3.08418-12.77848,9.01495-13.56555,3.70881-.49289,6.41675.83121,7.72689,2.50933l.09994-.012q-.80138-6.70572-1.60272-13.41142Q310.08961,59.84131,312.33713,59.59092ZM310.1897,79.74005a6.834,6.834,0,0,0-.403-1.6936,6.32607,6.32607,0,0,0-6.89461-3.93788c-4.54236.59971-6.6889,4.70163-5.96188,9.64686.66595,4.53532,3.52313,7.93141,8.09631,7.32572a6.46874,6.46874,0,0,0,5.64464-5.65637,6.81939,6.81939,0,0,0-.01566-1.78668Q310.4226,81.68908,310.1897,79.74005Z" style="fill: #fff"/>
      <path d="M335.37592,59.18521q.46363,6.57351.92727,13.147,8.13071-.57336,16.27233-.90666-.26958-6.58433-.53922-13.16865,2.25017-.09211,4.50081-.16633.5191,15.74193,1.03822,31.48386-2.12532.07007-4.25023.15707l-.60424-14.75668q-8.08848.33115-16.16774.90084.51956,7.36623,1.0391,14.73245-2.09778.14791-4.19467.31241Q332.16571,75.2183,330.934,59.516,333.15446,59.34188,335.37592,59.18521Z" style="fill: #fff"/>
      <path d="M366.93378,78.7842c.19394,5.5596,3.91436,7.78789,8.18016,7.78907a16.50492,16.50492,0,0,0,6.52186-1.12983q.34735,1.47668.69083,2.95381a20.25783,20.25783,0,0,1-7.79175,1.35464c-7.17111.01359-11.57214-4.435-11.74841-11.26321-.17731-6.81527,4.03232-12.31779,11.165-12.33836,7.98976-.00019,9.98921,6.57716,9.91353,10.72373a14.73855,14.73855,0,0,1-.17868,1.91394Q375.31061,78.65734,366.93378,78.7842Zm12.73687-2.989c.07386-2.61168-1.08987-6.70636-6.06362-6.6992-4.47205.01651-6.37034,3.89017-6.66869,6.74294Q373.30412,75.74316,379.67065,75.79523Z" style="fill: #fff"/>
      <path d="M401.87613,89.95105q-.09778-1.43223-.19733-2.8644l-.14605-.00718a8.97428,8.97428,0,0,1-7.30426,3.05856c-4.71894-.16507-7.06305-3.42767-6.997-6.702.10318-5.4552,5.3323-8.38664,14.61987-7.89872l.02273-.46723c.09211-1.8617-.28924-5.26833-5.2561-5.46876a12.44,12.44,0,0,0-6.36114,1.47377q-.46267-1.36859-.93024-2.73641a15.56645,15.56645,0,0,1,8.06363-1.74746c7.47165.31363,9.008,5.17125,8.74484,9.68622q-.23881,4.223-.47757,8.446a30.96984,30.96984,0,0,0,.08014,5.4347Q403.80716,90.0476,401.87613,89.95105Zm-.06436-11.56171c-4.73407-.33173-10.14459.29821-10.26724,4.69257a3.73662,3.73662,0,0,0,3.9086,4.061,5.90786,5.90786,0,0,0,5.85937-3.53675,4.14028,4.14028,0,0,0,.30777-1.29518Q401.716,80.35016,401.81177,78.38934Z" style="fill: #fff"/>
      <path d="M414.50327,57.46388q2.25362.15648,4.50625.33092-1.28118,16.54227-2.56235,33.08453-2.12091-.16425-4.24276-.31157Q413.3538,74.01582,414.50327,57.46388Z" style="fill: #fff"/>
      <path d="M431.59915,62.99715q-.32524,3.232-.65042,6.464,3.16068.318,6.31857.67214l-.349,3.11185q-3.14007-.35217-6.28308-.66838l-1.22131,12.13745c-.27921,2.79138.38449,4.45062,2.75388,4.702a10.083,10.083,0,0,0,2.49667-.00982q-.07356,1.54381-.14838,3.08754a10.97438,10.97438,0,0,1-3.81115.15175,6.07979,6.07979,0,0,1-4.4043-2.179c-1.08991-1.325-1.343-3.36577-1.097-6.01874q.56984-6.14306,1.13971-12.28613-1.87221-.17364-3.7453-.33457l.26807-3.11986q1.8837.16183,3.76648.33647.2504-2.69911.50076-5.39822Q429.36269,63.31249,431.59915,62.99715Z" style="fill: #fff"/>
      <path d="M443.50021,60.2265q2.24529.2722,4.48883.56239-.90531,6.99907-1.81063,13.99815l.09979.01291a7.84288,7.84288,0,0,1,3.52048-2.457,9.53717,9.53717,0,0,1,4.66134-.52956c3.25846.45953,8.1705,3.124,6.92377,10.83372q-1.059,6.64639-2.118,13.29279-2.10609-.33558-4.21417-.6542l1.942-12.84724c.54874-3.60072-.42727-6.8808-4.56061-7.46689a6.22208,6.22208,0,0,0-6.40087,3.284,4.68269,4.68269,0,0,0-.5492,1.90813q-.87534,6.76736-1.7507,13.53472-2.11235-.27324-4.22635-.52951Q441.50311,76.69768,443.50021,60.2265Z" style="fill: #fff"/>
      <path d="M482.25085,68.43171a62.54146,62.54146,0,0,1,9.45185,1.23782c6.29776,1.327,10.47116,3.69125,12.81607,6.88456,2.39828,3.20968,3.24777,7.17817,2.03009,12.1235-1.22885,4.99345-3.87631,8.6684-7.54529,10.77817-3.68643,2.15513-8.95047,2.5683-15.17334,1.27527-2.94638-.61194-5.39365-1.23871-7.44687-1.87255Q479.31721,83.64509,482.25085,68.43171Zm-1.10571,28.1726a29.548,29.548,0,0,0,4.16379,1.09325c8.86246,1.86631,14.781-1.67089,16.77008-9.95387,1.78174-7.20069-1.60364-12.91505-10.83929-14.87583a26.27681,26.27681,0,0,0-5.19367-.64006Q483.59555,84.41606,481.14514,96.60431Z" style="fill: #fff"/>
      <path d="M520.4198,109.39948q.2232-1.41827.44461-2.83693l-.142-.04a9.08474,9.08474,0,0,1-7.86249,1.33354c-4.60028-1.22453-6.17388-4.932-5.37912-8.10911,1.31855-5.29428,7.10462-6.97708,16.12833-4.40438q.06327-.22515.12653-.45033c.50552-1.794.88961-5.20173-3.948-6.51734a12.61024,12.61024,0,0,0-6.579.00328q-.14923-1.43831-.30347-2.87693a15.778,15.778,0,0,1,8.31262.11343c7.27488,1.99146,7.7056,7.07566,6.43967,11.41739q-1.17632,4.06287-2.35272,8.12573a30.63819,30.63819,0,0,0-1.13275,5.31625Q522.29739,109.92978,520.4198,109.39948ZM522.93433,98.114c-4.58182-1.3928-10.03788-1.99748-11.13816,2.2588a3.75333,3.75333,0,0,0,2.93512,4.83963,5.9592,5.9592,0,0,0,6.549-2.12559,4.113,4.113,0,0,0,.5914-1.19312Q522.40306,100.00385,522.93433,98.114Z" style="fill: #fff"/>
      <path d="M538.18579,91.04813q.62448,7.18077,1.11936,14.34859c.07083,1.59118.09732,3.4636.06018,4.87479l.09423.03016c.835-1.156,1.83554-2.65108,2.90665-4.02406q4.31393-5.58056,8.73389-11.10429,2.25087.74928,4.49685,1.51825-5.79959,6.53606-11.42413,13.17385c-5.38113,6.3994-8.55563,9.55526-12.04321,11.01064a11.84544,11.84544,0,0,1-5.74054,1.02552q-.00544-1.80772-.01782-3.61642a11.621,11.621,0,0,0,4.14218-.8448,12.83712,12.83712,0,0,0,4.79562-3.307,2.873,2.873,0,0,0,.621-.83347,3.45737,3.45737,0,0,0,.04236-1.11334q-1.06137-11.25924-2.46487-22.54795Q535.849,90.33292,538.18579,91.04813Z" style="fill: #fff"/>
    </g>
    <g style="opacity: 0.8">
      <g>
        <path d="M159.1991,432.4299h26.805c19.8591-13.546,18.5411-62.1826-3.7953-112.2583-23.4893-52.6601-61.3253-86.9664-84.5091-76.6252s-22.9361,61.4139.5531,114.0741C114.8225,394.7677,138.5305,422.7784,159.1991,432.4299Z" style="fill: #54cc85"/>
        <rect x="141.60466" y="245.78953" width="1.00019" height="194.61624" transform="translate(-127.44052 87.64686) rotate(-24.0394)" style="fill: #37aa65"/>
        <rect x="105.0215" y="276.76549" width="1.00048" height="31.44758" transform="translate(-202.13596 337.56203) rotate(-78.49672)" style="fill: #37aa65"/>
        <rect x="142.62451" y="361.06663" width="1.00048" height="31.44779" transform="translate(-254.64203 441.88571) rotate(-78.49476)" style="fill: #37aa65"/>
        <rect x="133.23386" y="328.01868" width="43.42829" height="0.99975" transform="translate(-206.8129 295.92446) rotate(-59.60042)" style="fill: #37aa65"/>
        <rect x="168.55177" y="404.89026" width="24.55655" height="0.99972" transform="translate(-260.33518 356.25869) rotate(-59.60536)" style="fill: #37aa65"/>
      </g>
      <g>
        <path d="M578.20419,432.4299h-39.8719c-22.717-15.4953-11.9999-71.1313,13.551-128.4132,26.8695-60.2384,70.1504-99.4816,96.6705-87.6522s26.2369,70.2519-.6326,130.4903C628.967,389.3477,601.84709,421.3894,578.20419,432.4299Z" style="fill: #34a562"/>
        <rect x="486.44706" y="329.74122" width="222.62246" height="1.00091" transform="translate(52.47875 741.39221) rotate(-65.93615)" style="fill: #1f894a"/>
        <rect x="621.61902" y="271.85033" width="35.97389" height="1.00049" transform="translate(-41.41877 132.79435) rotate(-11.48401)" style="fill: #1f894a"/>
        <rect x="578.6054" y="368.28348" width="35.97277" height="1.00043" transform="translate(-61.48402 126.17412) rotate(-11.48515)" style="fill: #1f894a"/>
        <rect x="582.56703" y="288.72609" width="1.00061" height="49.67773" transform="translate(-78.50387 338.34473) rotate(-30.41577)" style="fill: #1f894a"/>
        <rect x="552.96015" y="387.45361" width="1.00058" height="28.08984" transform="translate(-127.09812 335.47144) rotate(-30.41694)" style="fill: #1f894a"/>
      </g>
      <g>
        <path d="M144.5342,432.4299c4.9111-12.7224,1.1569-35.9809-10.72193-59.4088-15.54156-30.652-39.08-49.9535-52.57467-43.1113-13.4945,6.8422-11.8351,37.2372,3.7064,67.8891,7.4584,14.71,16.7579,26.7846,25.9059,34.631Z" style="fill: #34a562"/>
        <rect x="108.34216" y="330.25903" width="0.99924" height="107.73784" transform="translate(-162.49813 91.25346) rotate(-26.99427)" style="fill: #1f894a"/>
        <rect x="86.84291" y="349.44157" width="0.99968" height="18.74286" transform="translate(-280.52933 391.14963) rotate(-81.34255)" style="fill: #1f894a"/>
        <rect x="111.72256" y="398.51062" width="0.99968" height="18.74336" transform="translate(-307.90473 457.43059) rotate(-81.34279)" style="fill: #1f894a"/>
        <rect x="104.88941" y="378.29675" width="25.88426" height="1.00031" transform="translate(-272.495 307.96928) rotate(-62.43593)" style="fill: #1f894a"/>
        <rect x="128.19616" y="423.28992" width="14.63646" height="1.00027" transform="translate(-302.87806 347.80181) rotate(-62.43381)" style="fill: #1f894a"/>
      </g>
      <g>
        <path d="M604.65779,432.4299c-4.0711-10.5463-.959-29.8267,8.888-49.2475,12.8833-25.4093,32.3958-41.4094,43.5823-35.7375s9.8108,30.8681-3.0725,56.2773c-6.1827,12.194-13.89159,22.2034-21.4749,28.7077Z" style="fill: #54cc85"/>
        <rect x="589.59048" y="391.88999" width="89.31028" height="0.99933" transform="translate(-3.11624 779.69703) rotate(-63.0298)" style="fill: #37aa65"/>
        <rect x="644.29816" y="370.90396" width="15.53745" height="0.99968" transform="translate(-48.45518 102.32977) rotate(-8.65291)" style="fill: #37aa65"/>
        <rect x="623.67417" y="411.58076" width="15.53739" height="0.99962" transform="translate(-54.81439 99.70023) rotate(-8.65377)" style="fill: #37aa65"/>
        <rect x="626.29331" y="377.24178" width="1.00026" height="21.45685" transform="translate(-108.38924 334.14344) rotate(-27.56905)" style="fill: #37aa65"/>
        <rect x="611.63462" y="419.20183" width="1.00025" height="12.13254" transform="translate(-127.31635 331.59855) rotate(-27.56939)" style="fill: #37aa65"/>
      </g>
      <g>
        <path d="M218.2696,415.2973c-9.044-15.2509-30.2277-17.1428-40.0176-2.0861a6.71792,6.71792,0,0,1-6.4649,3.0316c-8.2584-1.0295-15.3028,1.7817-21.3571,7.2065a5.37589,5.37589,0,0,1-6.3636.5069,16.80251,16.80251,0,0,0-13.17334-1.428,3.66414,3.66414,0,0,1-4.4104-1.8387c-6.57209-13.3633-24.46956-15.2921-32.17-2.5033a3.89233,3.89233,0,0,1-3.9638,1.8512c-9.7192-1.5155-17.302,3.7614-23.3282,12.6255h190.043c-9.2063-7.8053-18.843-13.0827-29.4858-12.4527A10.1755,10.1755,0,0,1,218.2696,415.2973Z" style="fill: #19773d"/>
        <path d="M187.1045,426.6631c-4.9707-7.3682-13.73-9.8565-13.8179-9.8809l.1992-.7226c.0904.0244,9.1109,2.581,14.2408,10.1836Z" style="fill: #231c3d"/>
        <path d="M100.0996,426.9082a17.23988,17.23988,0,0,0-8.687-6.2119l.1992-.7227a17.67591,17.67591,0,0,1,9.1099,6.5147Z" style="fill: #231c3d"/>
        <path d="M219.0156,425.2236l-.5302-.5302a20.99189,20.99189,0,0,1,7.7436-4.4717l.2363.7109A20.67345,20.67345,0,0,0,219.0156,425.2236Z" style="fill: #231c3d"/>
        <path d="M123.03613,428.3516l-.58886-.4649a21.01922,21.01922,0,0,1,7.16308-5.3525l.31836.6797A20.66642,20.66642,0,0,0,123.03613,428.3516Z" style="fill: #231c3d"/>
      </g>
      <g>
        <path d="M627.57409,420.0745a10.09591,10.09591,0,0,1-9.2356-4.8745c-8.9734-15.1318-29.9916-17.0089-39.7051-2.0699a6.66538,6.66538,0,0,1-6.4143,3.0081c-8.194-1.0215-15.1834,1.7677-21.1903,7.1501a5.33412,5.33412,0,0,1-6.314.503c-14.8759-5.7431-26.1757,8.6386-26.1757,8.6386h138.2905C647.69519,424.6856,638.13379,419.4494,627.57409,420.0745Z" style="fill: #19773d"/>
        <path d="M587.415,426.4785c-4.93161-7.3105-13.622-9.7783-13.70891-9.8027l.1992-.7227c.0898.0244,9.041,2.5606,14.1308,10.1055Z" style="fill: #231c3d"/>
        <path d="M619.08009,425.0508l-.5303-.5303a20.84108,20.84108,0,0,1,7.6856-4.4375l.2363.7109A20.50047,20.50047,0,0,0,619.08009,425.0508Z" style="fill: #231c3d"/>
        <path d="M546.45119,429.1533l-.6758-.3262a17.33853,17.33853,0,0,1,4.8154-5.5781l.4571.5938A16.84,16.84,0,0,0,546.45119,429.1533Z" style="fill: #231c3d"/>
      </g>
    </g>
    <g>
      <path d="M176.0718,391.3984a2.66847,2.66847,0,0,1-1.4053-.4482c-6.894-4.2607,6.6436-40.8047,6.793-41.166l1.5176.4902c-1.834,7.7246-2.3687,16.9483-2.7984,24.3594-.5845,10.0801-.9922,15.3935-3.2041,16.5439A1.94254,1.94254,0,0,1,176.0718,391.3984Zm3.7046-31.8877c-3.5323,11.2852-7.7017,27.9571-4.2691,30.0782.482.2978.6685.2011.729.1699,1.5083-.7852,1.9336-8.1221,2.3452-15.2178C178.8467,369.9658,179.1514,364.7061,179.7764,359.5107Z" style="fill: #ffb516"/>
      <path d="M181.3069,374.5471v54.3478a3.37289,3.37289,0,0,0,3.3808,3.3648h22.7012a3.37541,3.37541,0,0,0,3.3834-3.3674V374.5471Z" style="fill: #fff;opacity: 0.5"/>
      <path d="M207.3887,432.6348H184.688a3.75245,3.75245,0,0,1-3.7559-3.7403V370.6406a30.31926,30.31926,0,0,1,1.1861-8.4004l1.3838-4.8056v-1.9287h25.0751v1.9287l1.3843,4.8056a30.33985,30.33985,0,0,1,1.1861,8.4004v58.252A3.75469,3.75469,0,0,1,207.3887,432.6348ZM184.252,356.2559l-.0147,1.3349-1.3984,4.8565a29.58061,29.58061,0,0,0-1.1568,8.1933v58.2539a3.00192,3.00192,0,0,0,3.0059,2.9903h22.7007a3.00417,3.00417,0,0,0,3.0088-2.9922v-58.252a29.59593,29.59593,0,0,0-1.1568-8.1933l-1.4136-4.96v-1.2314Z" style="fill: #231c3d"/>
      <g>
        <path d="M207.3076,367.7979a29.61447,29.61447,0,0,0-1.0146-5.3155l-.5537-1.9228.9609-.2774.5537,1.9229a30.55891,30.55891,0,0,1,1.0488,5.497Z" style="fill: #fff"/>
        <rect x="207.4448" y="370.6406" width="1" height="28.4063" style="fill: #fff"/>
        <rect x="207.4448" y="403.1318" width="1" height="23.3213" style="fill: #fff"/>
      </g>
      <g>
        <path d="M183.0402,355.0305V344.3979a2.15347,2.15347,0,0,1,1.7937-2.1193l21.7227-3.7276a2.11886,2.11886,0,0,1,2.4824,2.0812v14.2126a1.03887,1.03887,0,0,1-1.0414,1.0364H183.8949A.85269.85269,0,0,1,183.0402,355.0305Z" style="fill: #231c3d"/>
        <path d="M207.9976,356.2559H183.895a1.22921,1.22921,0,0,1-1.23-1.2256V344.3975a2.52284,2.52284,0,0,1,2.1055-2.4883l21.7227-3.7276a2.49284,2.49284,0,0,1,2.9209,2.4502v14.2129A1.41527,1.41527,0,0,1,207.9976,356.2559Zm-1.0787-17.3614a1.81535,1.81535,0,0,0-.2988.0254l-21.7226,3.7276a1.7756,1.7756,0,0,0-1.4825,1.75v10.6328a.47811.47811,0,0,0,.48.4756h24.1026a.66474.66474,0,0,0,.6665-.6612V340.6318a1.74255,1.74255,0,0,0-1.7452-1.7373Z" style="fill: #231c3d"/>
      </g>
      <g>
        <path d="M182.11,347.5368h3.8923a.8032.8032,0,0,1,.8032.8032v1.9405a.8031.8031,0,0,1-.8031.8031H182.11a.8031.8031,0,0,1-.8031-.8031v-1.9406A.8031.8031,0,0,1,182.11,347.5368Z" style="fill: #231c3d"/>
        <path d="M186.0024,351.459h-3.8925a1.17925,1.17925,0,0,1-1.1778-1.1787v-1.9405a1.179,1.179,0,0,1,1.1778-1.1777h3.8925a1.17921,1.17921,0,0,1,1.1783,1.1777v1.9405A1.17942,1.17942,0,0,1,186.0024,351.459Zm-3.8925-3.5469a.42793.42793,0,0,0-.4278.4277v1.9405a.42878.42878,0,0,0,.4278.4287h3.8925a.42889.42889,0,0,0,.4283-.4287v-1.9405a.428.428,0,0,0-.4283-.4277Z" style="fill: #231c3d"/>
      </g>
    </g>
    <g>
      <circle cx="550.81897" cy="412.54637" r="20.15662" transform="matrix(0.21214, -0.97724, 0.97724, 0.21214, 30.81243, 863.31155)" style="fill: #feb519"/>
      <path d="M557.32969,426.3589a20.13562,20.13562,0,0,1-16.9568-31.0271,20.14281,20.14281,0,1,0,27.4029,28.085A20.03034,20.03034,0,0,1,557.32969,426.3589Z" style="fill: #f4a211"/>
      <path d="M560.43359,401.5322c-4.5879,0-4.8438-3.5127-4.8457-3.5488l.748-.0449c.0079.1201.2325,2.9746,4.3389,2.8398l.0215.75C560.60739,401.5303,560.51949,401.5322,560.43359,401.5322Z" style="fill: #231c3d"/>
    </g>
    <g>
      <g>
        <path d="M278.3892,406.278s-7.3011,25.6776,23.1327,25.6776h15.456s40.4721-.3198,50.14619-8.0242Z" style="fill: #fff"/>
        <path d="M284.8516,406.278s-6.7694,25.6776,21.448,25.6776h14.3303s37.52469-.3198,46.49419-8.0242Z" style="fill: #ff695c"/>
        <path d="M498.90339,326.9308a36.02985,36.02985,0,0,0-13.626,2.9077l-54.7618,23.68c-1.29259.5395-2.5835,1.0527-3.8735,1.5522l-5.0064-10.9738c1.0928-3.2364,2.1188-6.8616,3.0891-10.8114h-98.7306c.9703,3.9498,1.9963,7.575,3.0891,10.8114l-.9085,3.7262-1.8112,7.4283c-1.6292-.5559-3.2638-1.1272-4.91089-1.7329a395.54781,395.54781,0,0,0-41.3199-11.3504c-7.6658-1.631-15.2803-3.3039-23.0457-1.3692a33.312,33.312,0,0,0-25.2164,32.3049c0,13.2743,4.7256,23.6787,19.0236,30.0853,38.0379,15.7939,77.44589,26.493,129.33609,28.7665h42.3279c27.6836,0,74.02371-14.845,64.3946-30.7596l20.7558-8.8629c14.4171-6.3164,24.4855-16.7738,24.4855-32.1113A33.29091,33.29091,0,0,0,498.90339,326.9308Z" style="fill: #f86c5a"/>
        <path d="M498.90339,326.9308a36.02985,36.02985,0,0,0-13.626,2.9077l-34.2221,14.7982-20.5397,8.8818c-1.29259.5395-2.5835,1.0527-3.8735,1.5522l-4.76009-10.434c-26.22471,9.7083-68.57621,9.1773-92.93031,0l-.7769,3.1864-1.8112,7.4283c-1.6292-.5559-3.2638-1.1272-4.91089-1.7329a395.54781,395.54781,0,0,0-41.3199-11.3504c-7.6658-1.631-15.2803-3.3039-23.0457-1.3692a33.312,33.312,0,0,0-25.2164,32.3049c0,13.2743,4.7256,23.6787,19.0236,30.0853,38.0379,15.7939,77.44589,26.493,129.33609,28.7665h21.5214c9.8371-12.8388,7.99221-35.5702,7.99221-35.5702s6.16209,2.1496,9.26289,3.1792a23.27984,23.27984,0,0,0,4.8479,1.1758c1.694.1784,3.41721.2509,5.1184.3632a176.3388,176.3388,0,0,0,18.7509.1333c6.3373-.2571,12.652-.8693,18.9912-1.0845,3.2955-.1119,6.5925-.1669,9.8891-.2369,1.569-.0332,3.1489-.1341,4.717-.0493,1.4432.078,2.823.4062,4.2471.5972a21.71777,21.71777,0,0,0,2.73151.1573l19.40869-8.2876c14.4171-6.3164,24.4855-16.7738,24.4855-32.1113A33.29091,33.29091,0,0,0,498.90339,326.9308Z" style="fill: #19773d"/>
        <path d="M409.63569,396.7451c-44.7944-13.5459-87.03409-23.0371-125.54539-28.2099l.0996-.7442c38.5513,5.1787,80.8301,14.6787,125.66259,28.2354Z" style="fill: #231c3d"/>
        <path d="M297.5581,370.4346c-7.6533-10.6123-20.3901-8.8731-20.5185-8.8555l-.1094-.7422c.1328-.0185,13.3183-1.8193,21.2363,9.1582Z" style="fill: #231c3d"/>
        <path d="M387.918,390.5273l-.336-.6699c33.43359-16.7285,55.92189-26.2041,75.19529-31.6836l.2051.7207C443.75679,364.3613,421.30759,373.8213,387.918,390.5273Z" style="fill: #231c3d"/>
        <path d="M414.26069,397.9504c3.6841,10.6901,1.6098,26.6595-6.5551,34.0631,26.636,0,60.6939,1.144,79.3018-7.4007,5.4523-2.5037,6.6132-8.954,6.7133-14.3483a52.55227,52.55227,0,0,0-1.982-13.1164c-1.7259-5.6359-4.6104-10.9406-11.0763-11.516-5.54439-.4933-10.3918,1.7458-15.3361,3.839-5.0861,2.1533-10.1811,4.3082-15.43129,6.0357-7.41671,2.4405-14.43861,5.1577-22.30821,5.3717C426.04609,400.9204,414.26069,397.9504,414.26069,397.9504Z" style="fill: #fff"/>
        <path d="M425.82769,432.5757c23.3.7966,48.5865-2.1801,61.1797-7.9629,5.4523-2.5037,6.6132-8.954,6.7133-14.3483a52.55227,52.55227,0,0,0-1.982-13.1164c-1.7259-5.6359-4.6104-10.9406-11.0763-11.516-5.54439-.4933-10.3918,1.7458-15.3361,3.839-5.0861,2.1533-10.1811,4.3082-15.43129,6.0357-7.41671,2.4405-15.58811,5.0207-23.45771,5.2348C438.71789,401.4718,442.058,428.095,425.82769,432.5757Z" style="fill: #ff695c"/>
        <path d="M491.73869,397.1481c-1.7259-5.6359-4.6103-10.9406-11.0763-11.516-4.9677-.442-9.3762,1.3101-13.796,3.185a20.59212,20.59212,0,0,1,7.8113-.928c6.4659.5753,9.3504,5.88,11.0764,11.5159a52.55286,52.55286,0,0,1,1.98191,13.1164c-.09971,5.3758-1.25551,11.7979-6.65981,14.3201a51.44172,51.44172,0,0,0,5.9312-2.2288c5.4523-2.5036,6.6132-8.9539,6.7133-14.3483A52.54689,52.54689,0,0,0,491.73869,397.1481Z" style="fill: #fff"/>
        <path d="M454.10449,361.5488l-.6289-.4082c4.0117-6.1709,13.6601-11.0566,14.0693-11.2617l.336.6699C467.78219,350.5986,458.00389,355.5508,454.10449,361.5488Z" style="fill: #231c3d"/>
        <rect x="337.7338" y="346.88464" width="0.75014" height="24.85477" transform="translate(-111.96412 561.44327) rotate(-70.9266)" style="fill: #231c3d"/>
        <rect x="409.94823" y="358.4484" width="17.53708" height="0.74965" transform="translate(-113.17538 213.32895) rotate(-25.29673)" style="fill: #231c3d"/>
        <path d="M445.26759,424.6475a1.01084,1.01084,0,0,1-.2774-.0391,1.00073,1.00073,0,0,1-.6836-1.2383c1.7041-5.9004.7852-10.9922-2.80859-15.5674a1.00007,1.00007,0,1,1,1.57229-1.2363c3.9649,5.0469,5.0274,10.8867,3.1582,17.3584A1.00042,1.00042,0,0,1,445.26759,424.6475Z" style="fill: #fff"/>
        <path d="M452.873,422.666a1.0143,1.0143,0,0,1-.27731-.039,1.00073,1.00073,0,0,1-.6836-1.2383c1.7041-5.8994.7852-10.9922-2.8096-15.5674a1.00007,1.00007,0,0,1,1.5723-1.2363c3.9648,5.0468,5.0283,10.8877,3.15921,17.3584A1.00058,1.00058,0,0,1,452.873,422.666Z" style="fill: #fff"/>
      </g>
      <g>
        <path d="M211.4973,284.4632l69.5408,20.7538c28.7906,13.1484,11.5207,46.1063-16.3649,37.4208-13.136-4.2378-41.0667-18.9144-67.0969-32.2499Z" style="fill: #f86c5a"/>
        <g>
          <path d="M218.1438,291.9455c-1.6478-5.8908-5.1785-8.1178-9.1675-10.0773,0,0-1.0497-12.7365-3.429-14.696s-15.6758-1.2596-15.6758-1.2596c-1.7495,5.1086,3.5691,8.6776,8.8177,8.8176.3557-.2633.0139,10.2793.0139,10.2793l-7.0696,2.6884-8.9467-6.2029c4.9197-4.0496,8.9614-8.4529,6.0651-13.7629-3.8568.8846-6.886,2.826-10.2173,4.5488,0,0-7.348,7.6979-7.278,11.6868s6.8581,9.5174,6.8581,9.5174l-19.7346,8.8176c-5.5414,2.8879-6.4117,6.1079-4.6187,9.5174l4.1988-1.3996c-4.8797,3.347-5.5172,6.8594-2.9392,10.4971l17.7752-5.5984c-3.1059,2.3218-4.3062,5.3985-2.969,7.8265l26.7625-8.3864C210.2131,310.6933,221.0831,304.7287,218.1438,291.9455Z" style="fill: #f86c5a"/>
          <rect x="172.20115" y="311.49968" width="20.52546" height="0.75065" transform="matrix(0.94197, -0.3357, 0.3357, 0.94197, -94.10871, 79.35255)" style="fill: #231c3d"/>
          <rect x="156.91602" y="304.42658" width="31.28126" height="0.74939" transform="translate(-98.07547 82.45499) rotate(-21.07868)" style="fill: #231c3d"/>
          <rect x="179.4526" y="281.1201" width="3.2344" height="0.75" style="fill: #231c3d"/>
          <rect x="198.47192" y="273.53662" width="3.30276" height="0.75097" transform="translate(-109.42779 135.14865) rotate(-29.7023)" style="fill: #231c3d"/>
          <path d="M199.8252,298.9775c-5.9492-7.7988-1.4712-14.1259-1.4253-14.1884l.6064.4414c-.1733.2392-4.1845,5.9511,1.4156,13.292Z" style="fill: #231c3d"/>
          <path d="M202.3546,312.8275c5.8273-1.9499,9.6053-4.2816,11.9828-6.826a12.395,12.395,0,0,1-7.7263,9.0247Z" style="fill: #231c3d"/>
        </g>
      </g>
      <g>
        <path d="M539.097,284.4632,469.55629,305.217c-28.7906,13.1484-11.5207,46.1063,16.3648,37.4208,13.136-4.2378,41.0668-18.9144,67.097-32.2499Z" style="fill: #f86c5a"/>
        <g>
          <path d="M531.85619,291.9455c1.64781-5.8908,5.1785-8.1178,9.1675-10.0773,0,0,1.0497-12.7365,3.429-14.696s15.6758-1.2596,15.6758-1.2596c1.74951,5.1086-3.5691,8.6776-8.8177,8.8176-.3557-.2633-.0139,10.2793-.0139,10.2793l7.0696,2.6884,8.9467-6.2029c-4.9197-4.0496-8.9614-8.4529-6.0651-13.7629,3.8568.8846,6.886,2.826,10.2173,4.5488,0,0,7.348,7.6979,7.278,11.6868s-6.8581,9.5174-6.8581,9.5174l19.7346,8.8176c5.5414,2.8879,6.4117,6.1079,4.6187,9.5174l-4.1988-1.3996c4.8797,3.347,5.51721,6.8594,2.93921,10.4971l-17.77521-5.5984c3.1059,2.3218,4.30621,5.3985,2.969,7.8265l-26.7625-8.3864C539.78689,310.6933,528.91689,304.7287,531.85619,291.9455Z" style="fill: #f86c5a"/>
          <path d="M548.02519,312.9794c-5.8274-1.9499-9.6885-4.2387-12.066-6.783.8766,3.654,2.9253,6.8574,7.7755,8.9835Z" style="fill: #231c3d"/>
          <rect x="567.16079" y="301.6118" width="0.75065" height="20.5264" transform="matrix(0.3356, -0.942, 0.942, 0.3356, 83.28208, 741.82998)" style="fill: #231c3d"/>
          <rect x="577.06915" y="289.16065" width="0.74939" height="31.28126" transform="translate(85.52316 734.17204) rotate(-68.94308)" style="fill: #231c3d"/>
          <rect x="567.31349" y="281.1201" width="3.2344" height="0.75" style="fill: #231c3d"/>
          <polygon points="551.125 275.057 548.257 273.42 548.628 272.768 551.496 274.404 551.125 275.057" style="fill: #231c3d"/>
          <path d="M550.17479,298.9775l-.5957-.455c5.5996-7.3409,1.58791-13.0528,1.4141-13.292l.6064-.4414C551.64549,284.8516,556.125,291.1787,550.17479,298.9775Z" style="fill: #231c3d"/>
        </g>
      </g>
      <g>
        <path d="M397.78769,262.5369l58.7366,70.8914c18.5714,25.5466,47.5358,2.0694,33.5244-23.4825l-54.5602-75.2735Z" style="fill: #f86c5a"/>
        <path d="M397.78769,262.5369l39.1257,51.7326c14.1227-9.7623,25.5541-20.7773,33.5345-33.3988,0,0-26.0022-44.4517-41.368-50.6384Z" style="fill: #86efb8"/>
        <path d="M348.82649,239.4318c6.0993,3.942,13.0773,5.9103,20.2443,6.7456,6.91.8053,14.2788.8341,20.6754-2.2311,6.2567-2.9981,11.4433-7.923,15.94281-13.1172,1.33469-1.5408,2.602-3.1361,3.83879-4.7549l-6.22179-1.0925-11.69531-2.0536c-5.9493,8.0327-25.2712,8.7422-32.6398.4276l-10.9971,1.777-12.1266,1.9596A50.75169,50.75169,0,0,0,348.82649,239.4318Z" style="fill: #f86c5a"/>
        <rect x="358.98079" y="199.2333" width="32.626" height="34.1673" style="fill: #f86c5a"/>
        <path d="M391.70609,214.4006a30.90561,30.90561,0,0,1-32.7224-.1403l-.0029,6.7257C370.48759,225.2843,381.84059,224.0835,391.70609,214.4006Z" style="fill: #231c3d"/>
        <path d="M352.80669,262.5369,294.0701,333.4283c-18.5714,25.5466-47.5358,2.0694-33.5244-23.4825l54.5602-75.2735Z" style="fill: #f86c5a"/>
        <polygon points="266.959 301.007 274.756 303.204 268.666 298.705 266.959 301.007" style="fill: #231c3d"/>
        <path d="M352.80669,262.5369,313.6809,314.2695c-23.3247-14.4417-33.5344-33.3988-33.5344-33.3988s26.0022-44.4517,41.368-50.6384Z" style="fill: #86efb8"/>
        <path d="M434.32029,310.8887l-.40429-.6309c20.30079-13.0185,32.877-34.6387,33.002-34.8555l.65039.3731C467.44239,275.9941,454.77439,297.7725,434.32029,310.8887Z" style="fill: #231c3d"/>
        <path d="M321.2004,337.9965c32.09689,7.5328,68.32979,8.3195,110.14569,0,0,0,5.6036-48.6567,9.4922-80.7201,2.935-14.3316-3.0086-26.9827-20.1356-29.3722L403.306,224.9817c-17.80681,11.0811-36.24011,11.3173-55.33221.1511L330.261,227.7132c-17.1271,2.3895-23.3107,15.2316-20.3758,29.5632C313.7739,289.3398,321.2004,337.9965,321.2004,337.9965Z" style="fill: #fff"/>
        <polygon points="483.583 301.031 475.261 303.605 481.899 298.702 483.583 301.031" style="fill: #231c3d"/>
        <path d="M375.46829,237.3667a52.51021,52.51021,0,0,1-32.3086-11.2695l.459-.5928c19.1347,14.8149,44.37931,14.811,64.3139-.0088l.4473.6016A55.07853,55.07853,0,0,1,375.46829,237.3667Z" style="fill: #231c3d"/>
        <path d="M316.2739,310.8887c-20.4536-13.1162-33.1225-34.8946-33.248-35.1133l.6504-.3731c.1245.2168,12.707,21.8399,33.0029,34.8555Z" style="fill: #231c3d"/>
        <path d="M377.25629,305.7299c.475-5.8862,2.13771-14.5548,7.4282-21.8319a33.93222,33.93222,0,0,1,2.9788-3.5425c-1.7857-13.0548-10.4552-23.0042-10.4552-23.0042s-8.6306,9.9057-10.4427,22.918a34.00506,34.00506,0,0,1,3.0627,3.6287C375.11859,291.1751,376.78129,299.8437,377.25629,305.7299Z" style="fill: #86efb8"/>
        <path d="M383.30719,303.1122a41.01653,41.01653,0,0,1,14.6149-11.7471,35.78182,35.78182,0,0,1,8.4457-2.5745,50.79514,50.79514,0,0,0,3.2698-20.884s-12.8539,2.9474-21.9743,12.4489a33.9358,33.9358,0,0,1,.3242,4.6035A41.01564,41.01564,0,0,1,383.30719,303.1122Z" style="fill: #86efb8"/>
        <path d="M377.25629,305.7299a47.5,47.5,0,0,1,.1109,6.5007,51.28893,51.28893,0,0,1,5.94-9.1184,41.01564,41.01564,0,0,0,4.6803-18.1532,33.9358,33.9358,0,0,0-.3242-4.6035,33.93222,33.93222,0,0,0-2.9788,3.5425C379.394,291.1751,377.73129,299.8437,377.25629,305.7299Z" style="fill: #54cc85"/>
        <path d="M406.36779,288.7906a35.80211,35.80211,0,0,1-4.24579,7.7847c-8.41261,11.5717-23.00571,15.5067-24.77481,15.9483l-.0036.0432-.0411-.0097.0022.0048-.0484.0142c.9536.2768,16.099,4.5144,29.5484-1.5672,13.893-6.2823,20.7142-21.1969,20.7142-21.1969A50.78537,50.78537,0,0,0,406.36779,288.7906Z" style="fill: #86efb8"/>
        <path d="M370.95529,302.8046a40.82612,40.82612,0,0,1-4.5266-17.8456,33.98274,33.98274,0,0,1,.3367-4.6897c-9.1152-9.4324-21.89039-12.3627-21.89039-12.3627a50.79326,50.79326,0,0,0,3.26979,20.884,35.78168,35.78168,0,0,1,8.4457,2.5745A40.80132,40.80132,0,0,1,370.95529,302.8046Z" style="fill: #86efb8"/>
        <path d="M370.95529,302.8046a52.46882,52.46882,0,0,1,6.301,9.7715c.7601-.3159,1.0285-2.7501,0-6.8462-.475-5.8862-2.1377-14.5548-7.4282-21.8319a34.00506,34.00506,0,0,0-3.0627-3.6287,33.98274,33.98274,0,0,0-.3367,4.6897A40.82612,40.82612,0,0,0,370.95529,302.8046Z" style="fill: #54cc85"/>
        <path d="M377.30249,312.5571l.0411.0097.0036-.0432-.05419.0133Z" style="fill: #86efb8"/>
        <path d="M377.27189,312.492l.02111.0449.05419-.0133c.0023-.029.0056-.0732.00981-.1329C377.32149,312.4333,377.29459,312.4652,377.27189,312.492Z" style="fill: #86efb8"/>
        <path d="M377.27189,312.492c.0227-.0268.0496-.0587.08511-.1013.003-.0433.00659-.1012.01019-.1601-.04919.0999-.085.1741-.1109.2287Z" style="fill: #86efb8"/>
        <path d="M377.20809,312.5668l-.0066-.0076-.0326.0076-.0036-.0432c-1.7691-.4416-16.3621-4.3766-24.7747-15.9483a35.79791,35.79791,0,0,1-4.2458-7.7847,50.78511,50.78511,0,0,0-21.1511,1.0214s6.8212,14.9146,20.7142,21.1969c13.4494,6.0816,28.5948,1.844,29.5484,1.5672l-.0449-.0132Z" style="fill: #86efb8"/>
        <path d="M377.21009,312.5571l-.0086.0021.0066.0076.0033-.0039-.0035-.001Z" style="fill: #86efb8"/>
        <path d="M377.16529,312.5236l.0036.0432.0326-.0076-.0291-.0339Z" style="fill: #86efb8"/>
        <path d="M377.21949,312.5369l-.0471-.0116.0291.0339.0086-.0021Z" style="fill: #86efb8"/>
        <path d="M377.30249,312.5571l-.0462-.0113-.03829.0094-.00661.0077.0449.0132.0484-.0142Z" style="fill: #86efb8"/>
        <path d="M377.20789,312.5619l.0035.001.00661-.0077-.00791.0019Z" style="fill: #86efb8"/>
        <path d="M377.218,312.5552l.03829-.0094-.0249-.0061Z" style="fill: #86efb8"/>
        <path d="M377.21949,312.5369l-.0094.0202.00791-.0019.01339-.0155Z" style="fill: #86efb8"/>
        <path d="M377.16529,312.5236l-.0005-.0073c.5117-1.1577-1.8865-5.364-6.2095-9.7117a40.80132,40.80132,0,0,0-14.3648-11.4395,35.78168,35.78168,0,0,0-8.4457-2.5745,35.79791,35.79791,0,0,0,4.2458,7.7847C360.80319,308.147,375.39619,312.082,377.16529,312.5236Z" style="fill: #54cc85"/>
        <polygon points="377.165 312.516 377.165 312.524 377.172 312.525 377.165 312.516" style="fill: #86efb8"/>
        <path d="M377.21949,312.5369l.0368-.0776c-.026-.0546-.0617-.1288-.1109-.2287.0081.1315.0152.2334.0194.2857l.0076.009Z" style="fill: #86efb8"/>
        <path d="M377.25629,312.5458l.0462.0113-.00949-.0202Z" style="fill: #86efb8"/>
        <path d="M377.27189,312.492l-.0405.0477.0249.0061.03671-.0089Z" style="fill: #86efb8"/>
        <path d="M377.21949,312.5369l.0119.0028.0405-.0477-.0156-.0327Z" style="fill: #86efb8"/>
        <path d="M383.30719,303.1122a32.05426,32.05426,0,0,0-6.2914,8.7548.495.495,0,0,0,.1495.6566l.091.0525c1.7691-.4416,16.4531-4.4291,24.86571-16.0008a35.80211,35.80211,0,0,0,4.24579-7.7847,35.78182,35.78182,0,0,0-8.4457,2.5745A41.01653,41.01653,0,0,0,383.30719,303.1122Z" style="fill: #54cc85"/>
      </g>
      <g>
        <path d="M392.07039,112.2211a16.79367,16.79367,0,0,0-.8065-1.9776c-2.62989-5.4211-7.7926-8.3537-13.4513-8.9512q-1.04025-.11-2.0867-.1236c-9.1065-.1313-19.634,3.9949-20.3723,15.3712a22.49155,22.49155,0,0,0,3.3597,12.8151c1.504,2.512,3.5162,4.895,6.1022,6.0192a21.87925,21.87925,0,0,0,8.5159,1.6921c5.8507.0598,13.8814-.7234,17.1073-6.9217A23.66967,23.66967,0,0,0,392.07039,112.2211Z" style="fill: #231c3d"/>
        <path d="M375.18329,124.363c-11.48629-.1322-22.99829,3.9509-30.6505,12.4088-5.4173,5.9878-7.8129,14.0354-8.6737,21.8162-.9213,8.3271-.9766,17.6526,1.4342,25.7288a51.9911,51.9911,0,0,0,9.1234,18.0611,36.75947,36.75947,0,0,0,11.3516,9.4132,35.48447,35.48447,0,0,0,10.42671,3.5541,39.75393,39.75393,0,0,0,18.51219-1.1018,35.38891,35.38891,0,0,0,11.4473-6.0894,41.45435,41.45435,0,0,0,10.8304-13.5441c3.8762-7.5114,4.9306-15.0827,5.9703-23.2745,1.427-11.2422-1.2806-24.9421-8.9638-33.7367C398.44819,128.9644,386.829,124.4971,375.18329,124.363Z" style="fill: #231c3d"/>
        <path d="M408.70179,161.6231c-.9697-9.0537-5.0386-17.2105-12.705-22.3508-15.5227-10.4076-39.3636-8.0093-49.7083,8.5843a25.63652,25.63652,0,0,0-2.9844,6.8041,33.5766,33.5766,0,0,0-1.0962,6.9625s-1.8537,17.222.93,27.9063a51.22553,51.22553,0,0,0,7.8432,17.0867,32.511,32.511,0,0,0,9.7591,8.9053,28.66847,28.66847,0,0,0,8.9637,3.3623,33.51928,33.51928,0,0,0,5.6159.5708c.0451-.0002.0899-.0064.1351-.0068a.44134.44134,0,0,0,.135-.0069,32.13133,32.13133,0,0,0,5.6159-.5571,28.66755,28.66755,0,0,0,8.9637-3.3623,32.51089,32.51089,0,0,0,9.7591-8.9053,51.22753,51.22753,0,0,0,7.8433-17.0867C410.55469,178.8484,408.70289,161.6333,408.70179,161.6231Z" style="fill: #f86c5a"/>
        <path d="M343.78389,173.7369s-9.6106-4.5864-13.7342,1.4727,3.7869,26.8873,15.98931,14.9374S343.78389,173.7369,343.78389,173.7369Z" style="fill: #f86c5a"/>
        <g>
          <path d="M338.49369,188.9204c-3.3296-1.9077-4.9996-6.4077-4.2681-9.1567a2.74854,2.74854,0,0,1,2.7588-2.231v.75a2.01388,2.01388,0,0,0-2.0337,1.6738c-.6485,2.4356.9209,6.5972,3.916,8.3135Z" style="fill: #231c3d"/>
          <path d="M339.65769,185.5747c-1.727-1.9336-4.0449-.5239-4.144-.4634l-.3965-.6367c.02981-.0176,2.9585-1.7998,5.1001.6011Z" style="fill: #231c3d"/>
        </g>
        <path d="M406.93969,173.7369s9.6106-4.5864,13.7342,1.4727-3.787,26.8873-15.9894,14.9374S406.93969,173.7369,406.93969,173.7369Z" style="fill: #f86c5a"/>
        <g>
          <path d="M412.23049,188.9204l-.3731-.6504c2.9942-1.7163,4.5635-5.8784,3.9151-8.3135a2.01339,2.01339,0,0,0-2.0332-1.6738v-.75a2.74756,2.74756,0,0,1,2.7578,2.231C417.22949,182.5122,415.55959,187.0122,412.23049,188.9204Z" style="fill: #231c3d"/>
          <path d="M411.06639,185.5747l-.5605-.499c2.1464-2.4038,5.0712-.6192,5.1005-.6011l-.3955.6372C415.11229,185.0513,412.78519,183.647,411.06639,185.5747Z" style="fill: #231c3d"/>
        </g>
        <path d="M375.50779,202.9478a17.01232,17.01232,0,0,1-8.9722-2.6368l.3897-.6406c5.53471,3.3638,11.40771,3.3599,17.9536-.0132l.3438.667A21.19388,21.19388,0,0,1,375.50779,202.9478Z" style="fill: #231c3d"/>
        <path d="M360.23539,188.2905a9.85967,9.85967,0,0,1-6.4717-2.6806l.48831-.5694c3.86319,3.3086,7.96479,3.3023,12.54049-.019l.4404.6074A12.0277,12.0277,0,0,1,360.23539,188.2905Z" style="fill: #231c3d"/>
        <path d="M390.99709,188.2905a9.86106,9.86106,0,0,1-6.4727-2.6806l.4883-.5694c3.86331,3.3091,7.9658,3.3008,12.54-.019l.4414.6074A12.02755,12.02755,0,0,1,390.99709,188.2905Z" style="fill: #231c3d"/>
        <path d="M375.69919,206.0537a8.63333,8.63333,0,0,1-4.55519-1.3398l.38969-.6407c2.6909,1.6353,5.54931,1.6309,8.7368-.0131l.3438.667A10.72543,10.72543,0,0,1,375.69919,206.0537Z" style="fill: #231c3d"/>
        <path d="M343.00189,186.8753a32.47815,32.47815,0,0,0,.8523,5.1035l-1.16319,1.1378A18.3238,18.3238,0,0,1,343.00189,186.8753Z" style="fill: #231c3d"/>
        <path d="M407.86109,187.0555c-.2422,1.7673-.535,3.7321-.8523,5.1035l1.16321,1.1378A18.32447,18.32447,0,0,0,407.86109,187.0555Z" style="fill: #231c3d"/>
        <path d="M351.90659,175.8817a10.28964,10.28964,0,0,1,3.3689-2.9224,5.48728,5.48728,0,0,1,2.4001-.7378,10.07394,10.07394,0,0,1,2.3351.3022,29.08182,29.08182,0,0,1,4.1139,1.3921,37.544,37.544,0,0,1,3.85441,1.8741.48995.48995,0,0,1-.38091.8965l-.0092-.0029-4.0176-1.2143c-1.3325-.3924-2.6677-.7763-3.9799-1.0438a8.93485,8.93485,0,0,0-1.8521-.2156,4.89313,4.89313,0,0,0-1.61129.4897c-1.16971.5179-2.35281,1.2205-3.553,1.8922l-.029.0161a.49481.49481,0,0,1-.63941-.7261Z" style="fill: #231c3d"/>
        <path d="M399.46439,176.5996c-1.2611-.6812-2.51-1.3881-3.7465-1.907a5.241,5.241,0,0,0-1.7208-.482,9.89809,9.89809,0,0,0-1.9576.2207c-1.3762.268-2.774.6513-4.1693,1.0431l-4.205,1.2124-.0086.0025a.48973.48973,0,0,1-.3659-.9028,40.61351,40.61351,0,0,1,4.0494-1.8735,31.62471,31.62471,0,0,1,4.2976-1.3873,11.00928,11.00928,0,0,1,2.4088-.3039,5.83714,5.83714,0,0,1,2.4856.7123,10.91281,10.91281,0,0,1,3.5834,2.9396.49432.49432,0,0,1-.6223.7416Z" style="fill: #231c3d"/>
        <path d="M375.77689,197.0552q-.1062,0-.2124-.0044a4.91025,4.91025,0,0,1-4.125-2.4585l.6523-.3711a4.11006,4.11006,0,0,0,3.5015,2.0801,4.70428,4.70428,0,0,0,4.1118-2.1045l.6211.4199A5.46921,5.46921,0,0,1,375.77689,197.0552Z" style="fill: #231c3d"/>
        <path d="M407.71269,163.7094c-.5508-7.6136-2.9415-15.413-7.4499-20.9744-6.1322-7.5644-15.5779-11.478-25.0452-11.5956-9.3377-.1158-18.6963,3.4613-24.9171,10.8712-4.4039,5.2457-6.3514,12.2961-7.0512,19.1127-.08729.8505-.1627,1.715-.2288,2.5861q3.6393,1.17675,7.2712,2.0956a42.1612,42.1612,0,0,1,3.5992-10.5489,71.21383,71.21383,0,0,0-1.1635,11.1359,100.068,100.068,0,0,0,37.0751,1.6188,37.92584,37.92584,0,0,0-.2298-5.932,25.77343,25.77343,0,0,1,1.6436,5.7155A103.20739,103.20739,0,0,0,407.71269,163.7094Z" style="fill: #231c3d"/>
        <path d="M391.22459,128.2783c-9.959-4.9902-24.4961-5.0049-33.0928-.0332l-.8007-1.3847c9.0161-5.2144,24.2197-5.2193,34.6103-.0127Z" style="fill: #ffb516"/>
        <path d="M350.57669,142.2642l-.5528-.5069c5.89211-6.4365,14.7574-10.2427,24.3233-10.4424a33.705,33.705,0,0,1,24.9399,9.7261l-.5312.5293a33.01718,33.01718,0,0,0-24.3931-9.5058C365.001,132.2603,356.33109,135.9775,350.57669,142.2642Z" style="fill: #4c456d"/>
        <path d="M357.77729,167.4966c-.3828-21.5459,7.41171-28.7515,7.74371-29.0479l.49949.5591c-.0786.0708-7.8691,7.3184-7.4932,28.4751Z" style="fill: #4c456d"/>
        <path d="M398.13089,166.3589c-.00389-.1089-.50389-10.9766-6.8301-18.1919l.5644-.4941c6.5039,7.4179,7.01081,18.5454,7.0157,18.6567Z" style="fill: #4c456d"/>
        <path d="M400.31739,151.6377a26.94352,26.94352,0,0,0-9.3897-11.3809c-.17669-.1279-.2841-.2109-.3154-.2417l.5215-.539c.03221.0288.1133.0859.2344.1733a27.694,27.694,0,0,1,9.6425,11.7012Z" style="fill: #4c456d"/>
        <path d="M388.29589,114.1167c-1.2988-6.8984-8.0723-8.5386-8.1406-8.5547l.1679-.7309c.0723.017,7.3184,1.7573,8.709,9.1469Z" style="fill: #4c456d"/>
        <path d="M352.444,190.1762c0,.9641-1.20021,1.7457-2.68081,1.7457s-2.6809-.7816-2.6809-1.7457,1.2003-1.7458,2.6809-1.7458S352.444,189.212,352.444,190.1762Z" style="fill: #ff847b"/>
        <path d="M404.69919,190.1762c0,.9641-1.20019,1.7457-2.6808,1.7457s-2.6809-.7816-2.6809-1.7457,1.2003-1.7458,2.6809-1.7458S404.69919,189.212,404.69919,190.1762Z" style="fill: #ff847b"/>
      </g>
    </g>
    <rect x="55.0386" y="432.0547" width="639.92329" height="0.75" style="fill: #231c3d"/>
  </g>
</svg>
