<?xml version="1.0" standalone="no"?>
<!DOCTYPE svg PUBLIC "-//W3C//DTD SVG 20010904//EN"
 "http://www.w3.org/TR/2001/REC-SVG-20010904/DTD/svg10.dtd">
<svg version="1.0" xmlns="http://www.w3.org/2000/svg"
 width="366.000000pt" height="366.000000pt" viewBox="0 0 366.000000 366.000000"
 preserveAspectRatio="xMidYMid meet">
<metadata>
Created by potrace 1.11, written by Peter Selinger 2001-2013
</metadata>
<g transform="translate(0.000000,366.000000) scale(0.100000,-0.100000)"
fill="#000000" stroke="none">
<path d="M1831 3555 c-31 -14 -96 -66 -201 -161 -25 -23 -58 -53 -74 -67 l-30
-24 -160 54 c-181 61 -235 68 -306 36 -85 -38 -109 -78 -176 -283 -25 -80 -49
-148 -53 -152 -3 -3 -84 -22 -180 -42 -191 -38 -231 -57 -276 -124 -45 -69
-47 -112 -7 -309 l34 -177 -49 -45 c-27 -26 -83 -75 -123 -111 -118 -104 -128
-120 -137 -204 -10 -97 8 -132 146 -285 38 -42 80 -89 93 -105 l25 -30 -54
-160 c-61 -181 -67 -235 -36 -308 35 -77 81 -106 269 -168 l169 -57 37 -178
c41 -196 59 -236 126 -279 58 -39 109 -46 204 -30 46 8 91 17 100 20 10 3 30
7 45 10 16 2 52 10 82 16 l54 12 36 -40 c20 -22 68 -75 106 -118 95 -108 104
-116 150 -137 44 -21 111 -24 166 -9 40 11 74 36 187 138 42 38 90 80 106 94
l30 25 157 -52 c87 -30 174 -55 194 -58 75 -10 173 35 212 98 10 16 43 104 74
195 l56 165 178 37 c194 40 235 59 280 126 50 76 50 103 -10 397 -19 96 -22
87 50 151 181 159 206 185 226 228 35 77 18 191 -37 251 -11 11 -53 58 -94
105 -41 47 -85 95 -96 109 l-22 23 55 162 c65 192 69 238 30 317 -16 33 -42
64 -64 80 -21 15 -112 51 -203 81 l-165 55 -23 109 c-48 236 -54 255 -86 297
-40 53 -108 88 -172 89 -27 0 -116 -14 -199 -31 -82 -17 -155 -31 -161 -31 -7
0 -67 61 -134 136 -85 94 -136 142 -164 155 -49 22 -137 24 -185 4z m207 -182
c83 -89 123 -139 116 -146 -3 -3 -59 -15 -125 -28 l-119 -23 -120 39 c-66 22
-120 42 -120 46 0 8 188 172 208 181 10 4 35 6 57 3 34 -3 49 -13 103 -72z
m-713 -130 c39 -13 76 -26 84 -29 9 -3 -1 -17 -30 -43 -24 -21 -66 -59 -94
-85 -47 -43 -77 -57 -150 -71 -16 -3 -58 -11 -93 -18 -34 -8 -64 -12 -66 -10
-2 3 14 58 36 123 69 207 85 213 313 133z m1426 -84 c8 -11 26 -71 38 -132 12
-62 25 -122 28 -134 5 -21 0 -21 -122 21 -115 39 -131 47 -164 87 -20 23 -57
66 -83 93 -25 28 -44 53 -42 55 3 3 62 17 132 31 114 24 131 25 162 13 19 -8
42 -23 51 -34z m-1139 -12 c21 -7 40 -15 42 -18 3 -2 -38 -14 -91 -25 l-97
-21 42 38 c46 43 51 44 104 26z m672 -50 c63 -70 66 -68 -38 -34 -52 17 -93
33 -91 35 5 6 66 20 89 21 10 1 28 -10 40 -22z m-71 -150 c152 -51 285 -100
295 -108 9 -8 47 -49 83 -90 37 -41 125 -140 197 -221 72 -81 133 -155 136
-165 3 -10 24 -108 46 -218 49 -236 47 -225 62 -295 6 -30 12 -64 13 -75 2
-11 -42 -155 -97 -320 l-99 -300 -126 -110 c-69 -60 -135 -119 -146 -130 -12
-11 -58 -52 -102 -90 -44 -39 -83 -74 -86 -78 -5 -6 -67 -21 -225 -53 -12 -2
-66 -13 -120 -25 -140 -29 -134 -28 -189 -39 -27 -6 -61 -12 -74 -15 -14 -3
-147 37 -325 96 l-301 100 -70 80 c-88 100 -111 127 -189 214 -163 181 -160
177 -175 256 -7 41 -28 144 -46 229 -18 85 -35 169 -38 185 -3 17 -10 52 -16
78 -11 46 -9 56 88 347 82 246 105 304 128 325 59 54 91 83 168 150 44 39 82
73 85 76 20 22 179 158 195 166 11 6 90 25 175 42 85 17 216 44 290 60 74 16
146 27 160 25 14 -3 150 -46 303 -97z m-1215 -114 c-24 -21 -56 -50 -73 -65
-16 -15 -31 -26 -32 -24 -2 2 24 86 33 104 1 3 80 19 102 21 6 1 -7 -16 -30
-36z m-250 -135 c-23 -68 -46 -127 -52 -133 -6 -5 -50 -45 -98 -88 -81 -73
-88 -77 -92 -55 -51 228 -53 237 -40 275 7 21 21 44 31 51 17 12 74 30 123 38
14 3 31 7 38 9 7 2 34 7 60 11 26 3 49 8 51 10 19 18 14 -14 -21 -118z m2060
51 c42 -12 40 -8 59 -109 2 -15 1 -21 -5 -15 -85 98 -124 148 -111 143 10 -4
35 -12 57 -19z m389 -131 c29 -10 62 -31 73 -45 34 -44 30 -67 -56 -322 -5
-16 1 -22 -112 107 -39 45 -72 88 -73 95 0 6 -2 19 -4 27 -24 123 -38 186 -42
196 -5 13 103 -16 214 -58z m-2603 -382 c-29 -88 -37 -92 -48 -19 -6 39 -3 44
31 77 21 19 39 33 41 31 2 -2 -9 -42 -24 -89z m2558 -120 c11 -20 -8 -106 -23
-106 -4 0 -13 26 -19 58 -6 31 -15 72 -20 91 l-9 34 30 -29 c17 -16 35 -37 41
-48z m-2692 -87 l23 -122 -39 -119 c-21 -65 -42 -118 -45 -118 -5 0 -90 94
-157 173 -32 38 -41 82 -26 122 8 21 205 196 214 190 4 -3 18 -59 30 -126z
m2865 -106 c119 -133 125 -142 125 -185 0 -36 -6 -47 -52 -92 -82 -80 -160
-146 -168 -141 -4 3 -18 59 -30 126 l-23 122 38 118 c22 66 42 119 45 119 3 0
32 -30 65 -67z m-2760 -398 l14 -60 -40 43 c-43 45 -45 62 -16 132 10 24 10
24 19 -15 5 -22 15 -67 23 -100z m2550 -83 c6 -39 4 -44 -32 -77 -21 -19 -41
-35 -44 -35 -4 0 6 35 22 78 16 42 29 84 29 92 1 28 18 -12 25 -58z m-2541
-157 c53 -59 49 -48 80 -198 15 -77 20 -117 12 -114 -6 2 -63 21 -126 42 -185
62 -197 87 -134 274 19 58 37 112 40 120 3 9 17 -1 43 -30 21 -24 59 -66 85
-94z m2601 -135 c9 -47 19 -101 22 -120 3 -19 7 -37 9 -39 9 -10 -38 -79 -61
-89 -20 -9 -252 -62 -272 -62 -1 0 17 56 40 124 l42 124 95 85 c60 53 97 80
102 73 3 -6 14 -49 23 -96z m-2259 -257 c-1 -1 -25 5 -53 14 -47 15 -52 20
-58 52 -3 20 -9 47 -12 61 -5 18 12 3 59 -50 37 -41 65 -76 64 -77z m1837 -31
c-16 -50 -18 -51 -65 -62 -27 -5 -53 -10 -59 -10 -5 0 23 29 63 64 40 35 74
63 75 62 1 -1 -5 -25 -14 -54z m-1671 -159 c8 -4 52 -49 97 -100 66 -74 78
-92 64 -97 -10 -2 -45 -10 -78 -17 -33 -7 -62 -13 -65 -14 -3 0 -23 -5 -45
-10 -70 -15 -128 2 -150 44 -7 14 -23 73 -35 131 -11 58 -23 115 -26 127 -4
21 -1 21 110 -17 63 -21 121 -42 128 -47z m1603 -35 c-55 -179 -82 -246 -106
-270 -44 -44 -71 -41 -328 48 -14 5 -7 12 81 88 18 16 47 42 65 59 26 24 53
34 155 57 67 15 126 28 130 29 4 0 6 -5 3 -11z m-1179 -105 c-4 -4 -32 -10
-81 -18 -26 -5 -35 0 -67 39 l-37 44 94 -31 c52 -17 93 -33 91 -34z m646 -24
c-46 -44 -59 -46 -127 -18 -29 11 -27 12 65 34 52 13 97 23 100 24 3 0 -14
-18 -38 -40z m-275 -96 c62 -21 113 -40 113 -44 0 -9 -189 -173 -208 -181 -10
-4 -32 -7 -51 -7 -28 -1 -42 8 -80 46 -89 92 -151 167 -144 174 10 9 186 46
228 48 16 0 80 -16 142 -36z"/>
</g>
</svg>
